<svg version="1.1" xmlns="http://www.w3.org/2000/svg" xmlns:xlink="http://www.w3.org/1999/xlink" width="199.13324" height="217.63652" viewBox="0,0,199.13324,217.63652"><g transform="translate(-140.43338,-73.68183)"><g data-paper-data="{&quot;isPaintingLayer&quot;:true}" fill-rule="nonzero" stroke-width="10" stroke-linejoin="miter" stroke-miterlimit="10" stroke-dasharray="" stroke-dashoffset="0" style="mix-blend-mode: normal"><path d="M145.43338,191.75173c0,-52.2277 42.33891,-94.56662 94.56662,-94.56662c52.2277,0 94.56662,42.33891 94.56662,94.56662c0,52.2277 -42.33891,94.56662 -94.56662,94.56662c-52.2277,0 -94.56662,-42.33891 -94.56662,-94.56662z" fill="#fff700" stroke="#000000" stroke-linecap="butt"/><path d="M165.89516,191.75173c0,-40.92698 33.17786,-74.10485 74.10484,-74.10485c40.92698,0 74.10485,33.17786 74.10485,74.10485c0,40.92698 -33.17786,74.10484 -74.10485,74.10484c-40.92698,0 -74.10484,-33.17786 -74.10484,-74.10484z" fill="#ffffff" stroke="none" stroke-linecap="butt"/><path d="M198.79993,110.73424c0,0 4.20664,-36.96335 41.47657,-37.05241c39.48185,-0.09436 40.92358,36.49941 40.92358,36.49941" fill="#fff700" stroke="#000000" stroke-linecap="round"/><path d="M240,121.51806v7.74231" fill="none" stroke="#000000" stroke-linecap="round"/><path d="M240,254.24314v7.74227" fill="none" stroke="#000000" stroke-linecap="round"/><path d="M169.76633,191.75173h7.74227" fill="none" stroke="#000000" stroke-linecap="round"/><path d="M302.4914,191.75173h7.74227" fill="none" stroke="#000000" stroke-linecap="round"/><path d="M231.15167,191.75173c0,-4.88682 3.96154,-8.84833 8.84833,-8.84833c4.88682,0 8.84833,3.96155 8.84833,8.84833c0,4.88682 -3.96155,8.84833 -8.84833,8.84833c-4.88682,0 -8.84833,-3.96154 -8.84833,-8.84833z" fill="#000000" stroke="none" stroke-linecap="butt"/><path d="M226.4674,109.35352c0,0 1.38172,-12.14101 13.62343,-12.17026c12.96823,-0.03098 13.44177,11.98861 13.44177,11.98861" fill="#000000" stroke="#000000" stroke-linecap="round"/></g></g></svg>